{"accessors" : [{"bufferView" : 0, "byteOffset" : 0, "componentType" : 5123, "count" : 10896, "type" : "SCALAR", "max" : [9095], "min" : [0]}, {"bufferView" : 1, "byteOffset" : 0, "componentType" : 5126, "count" : 9096, "type" : "VEC3", "max" : [1.8939416408538818, 0, 0.22954760491847992], "min" : [-2.2055389881134033, -0.14000000059604645, -0.37113845348358154], "name" : "POSITION"}, {"bufferView" : 1, "byteOffset" : 12, "componentType" : 5126, "count" : 9096, "type" : "VEC2", "max" : [1, 1], "min" : [0, 1], "name" : "TEXCOORD_0"}, {"bufferView" : 1, "byteOffset" : 20, "componentType" : 5126, "count" : 9096, "type" : "VEC3", "max" : [1.0000044107437134, 1.0000044107437134, 1.0000044107437134], "min" : [-1.0000044107437134, -1.0000044107437134, -1.0000044107437134], "name" : "NORMAL"}, {"bufferView" : 0, "byteOffset" : 21792, "componentType" : 5123, "count" : 52764, "type" : "SCALAR", "max" : [43559], "min" : [0]}, {"bufferView" : 2, "byteOffset" : 0, "componentType" : 5126, "count" : 43560, "type" : "VEC3", "max" : [4.876017093658447, 5.692349910736084, 3.3876070976257324], "min" : [-5.280736446380615, -0.3797008991241455, -11.862406730651855], "name" : "POSITION"}, {"bufferView" : 2, "byteOffset" : 12, "componentType" : 5126, "count" : 43560, "type" : "VEC2", "max" : [0.9957839846611023, 0.9995009899139404], "min" : [0.0004780000017490238, 0.000500023365020752], "name" : "TEXCOORD_0"}, {"bufferView" : 2, "byteOffset" : 20, "componentType" : 5126, "count" : 43560, "type" : "VEC3", "max" : [1.0000044107437134, 0.9999006986618042, 0.9999970197677612], "min" : [-1.0000044107437134, -1.000001311302185, -0.9999936819076538], "name" : "NORMAL"}], "asset" : {"generator" : "Aspose.3D 23.4.0", "version" : "2.0"}, "buffers" : [{"uri" : "data:application/octet-stream;base64,", "byteLength" : 2164452}], "bufferViews" : [{"buffer" : 0, "byteOffset" : 0, "byteLength" : 127320, "target" : 34963}, {"buffer" : 0, "byteOffset" : 127324, "byteLength" : 348672, "byteStride" : 32, "target" : 34962}, {"buffer" : 0, "byteOffset" : 476000, "byteLength" : 1688448, "byteStride" : 32, "target" : 34962}], "images" : [{"uri" : "data:image/png;base64,"}], "materials" : [{"name" : "Material.001", "pbrMetallicRoughness" : {"baseColorFactor" : [0.09989803284406662, 0.5332761406898499, 0.5088813900947571, 1], "metallicFactor" : 0, "roughnessFactor" : 0.5}, "emissiveFactor" : [0, 0, 0], "alphaMode" : "OPAQUE", "doubleSided" : true}, {"name" : "material_0", "pbrMetallicRoughness" : {"baseColorFactor" : [1, 1, 1, 1], "metallicFactor" : 1, "roughnessFactor" : 1}, "occlusionTexture" : {"index" : 0, "texCoord" : 0, "strength" : 0}, "emissiveFactor" : [0, 0, 0], "alphaMode" : "OPAQUE", "doubleSided" : true}], "meshes" : [{"primitives" : [{"attributes" : {"POSITION" : 1, "TEXCOORD_0" : 2, "NORMAL" : 3}, "indices" : 0, "material" : 0, "mode" : 4}, {"attributes" : {"POSITION" : 5, "TEXCOORD_0" : 6, "NORMAL" : 7}, "indices" : 4, "material" : 1, "mode" : 4}]}], "nodes" : [{"matrix" : [0.13124900809196507, 0, 0, 0, 0, -0.0018924419628399373, -0.13123535022851504, 0, 0, -0.13123535022851504, 0.0018924692942306708, 0, 0.026559513062238693, 0.44370532035827637, 0.33196839690208435, 1], "mesh" : 0, "name" : "Text.001"}], "samplers" : [{"magFilter" : 9729, "minFilter" : 9987, "wrapS" : 10497, "wrapT" : 10497}], "scene" : 0, "scenes" : [{"nodes" : [0]}], "textures" : [{"sampler" : 0, "source" : 0, "name" : ""}]}