{
	"asset":{
		"generator":"Khronos glTF Blender I/O v3.5.30",
		"version":"2.0"
	},
	"extensionsUsed":[
		"KHR_materials_specular",
		"KHR_materials_ior",
		"KHR_materials_emissive_strength"
	],
	"scene":0,
	"scenes":[
		{
			"name":"Scene",
			"nodes":[
				0,
				1,
				2,
				3,
				4,
				5,
				6,
				7
			]
		}
	],
	"nodes":[
		{
			"mesh":0,
			"name":"Cube"
		},
		{
			"mesh":1,
			"name":"Plane",
			"rotation":[
				0,
				0,
				-0.7071068286895752,
				0.7071068286895752
			],
			"scale":[
				0.13302132487297058,
				1.4780142307281494,
				0.08868091553449631
			],
			"translation":[
				0.6654733419418335,
				0.0998106449842453,
				-0.2558194696903229
			]
		},
		{
			"name":"Empty",
			"translation":[
				0.10631820559501648,
				0.11717887222766876,
				-0.000851798802614212
			]
		},
		{
			"mesh":2,
			"name":"holocruxe text",
			"rotation":[
				0.5,
				0.5,
				-0.5,
				0.5
			],
			"scale":[
				0.10564311593770981,
				0.4046822786331177,
				0.08922259509563446
			],
			"translation":[
				0.6628659963607788,
				0.3790974020957947,
				-0.01954156905412674
			]
		},
		{
			"mesh":3,
			"name":"Cylinder",
			"rotation":[
				0.7071068286895752,
				0,
				0,
				0.7071068286895752
			],
			"scale":[
				-0.141231507062912,
				-0.030694859102368355,
				-0.1363888382911682
			],
			"translation":[
				-0.0007384365890175104,
				0.0008386760018765926,
				0.8217045664787292
			]
		},
		{
			"mesh":4,
			"name":"Cylinder.001",
			"rotation":[
				-0.7071068286895752,
				0,
				0,
				0.7071068286895752
			],
			"scale":[
				-0.1362200677394867,
				-0.02960568480193615,
				-0.13154922425746918
			],
			"translation":[
				0.0020599975250661373,
				-0.004257206805050373,
				-0.8196122050285339
			]
		},
		{
			"mesh":5,
			"name":"Cylinder.002",
			"scale":[
				0.03582292050123215,
				0.06602472811937332,
				0.03567406162619591
			],
			"translation":[
				0.01165599375963211,
				0.8891429901123047,
				0
			]
		},
		{
			"mesh":6,
			"name":"Icosphere",
			"scale":[
				-0.06348848342895508,
				-0.06348848342895508,
				-0.06348848342895508
			],
			"translation":[
				0.012691601179540157,
				0.9259580969810486,
				0
			]
		}
	],
	"materials":[
		{
			"doubleSided":true,
			"extensions":{
				"KHR_materials_specular":{
					"specularColorFactor":[
						1.226145715220941,
						1.226145715220941,
						1.226145715220941
					]
				},
				"KHR_materials_ior":{
					"ior":1.4500000476837158
				}
			},
			"name":"body",
			"pbrMetallicRoughness":{
				"baseColorFactor":[
					0.9671551585197449,
					0.9898307919502258,
					1,
					1
				],
				"roughnessFactor":0.20795221626758575
			}
		},
		{
			"doubleSided":true,
			"name":"face",
			"pbrMetallicRoughness":{
				"baseColorFactor":[
					0,
					0,
					0,
					1
				],
				"metallicFactor":0,
				"roughnessFactor":0.09931507706642151
			}
		},
		{
			"alphaMode":"BLEND",
			"doubleSided":true,
			"emissiveFactor":[
				0.019875658751399558,
				0.052457977472247466,
				1
			],
			"extensions":{
				"KHR_materials_emissive_strength":{
					"emissiveStrength":1.981066607683232
				}
			},
			"name":"eyes",
			"pbrMetallicRoughness":{
				"baseColorFactor":[
					0.005594552028924227,
					0.007482430897653103,
					0.533276379108429,
					1
				],
				"metallicFactor":0,
				"roughnessFactor":0.5
			}
		},
		{
			"doubleSided":true,
			"emissiveFactor":[
				0.10988777896636037,
				0.5866034496157795,
				0.5597692379199657
			],
			"name":"Material.001",
			"pbrMetallicRoughness":{
				"baseColorFactor":[
					0.09989803284406662,
					0.5332761406898499,
					0.5088813900947571,
					1
				],
				"metallicFactor":0,
				"roughnessFactor":0.5
			}
		},
		{
			"doubleSided":true,
			"emissiveFactor":[
				0.14047561585903168,
				0.6810891032218933,
				1
			],
			"extensions":{
				"KHR_materials_emissive_strength":{
					"emissiveStrength":1.6999998092651367
				}
			},
			"name":"glow",
			"pbrMetallicRoughness":{
				"baseColorFactor":[
					0,
					0,
					0,
					1
				]
			}
		}
	],
	"meshes":[
		{
			"name":"Cube",
			"primitives":[
				{
					"attributes":{
						"POSITION":0,
						"TEXCOORD_0":1,
						"NORMAL":2
					},
					"indices":3,
					"material":0
				},
				{
					"attributes":{
						"POSITION":4,
						"TEXCOORD_0":5,
						"NORMAL":6
					},
					"indices":7,
					"material":1
				}
			]
		},
		{
			"name":"Plane",
			"primitives":[
				{
					"attributes":{
						"POSITION":8,
						"TEXCOORD_0":9,
						"NORMAL":10
					},
					"indices":11,
					"material":2
				}
			]
		},
		{
			"name":"Text",
			"primitives":[
				{
					"attributes":{
						"POSITION":12,
						"TEXCOORD_0":13,
						"NORMAL":14
					},
					"indices":15,
					"material":3
				}
			]
		},
		{
			"name":"Cylinder",
			"primitives":[
				{
					"attributes":{
						"POSITION":16,
						"TEXCOORD_0":17,
						"NORMAL":18
					},
					"indices":19,
					"material":0
				},
				{
					"attributes":{
						"POSITION":20,
						"TEXCOORD_0":21,
						"NORMAL":22
					},
					"indices":23,
					"material":4
				}
			]
		},
		{
			"name":"Cylinder.001",
			"primitives":[
				{
					"attributes":{
						"POSITION":24,
						"TEXCOORD_0":25,
						"NORMAL":26
					},
					"indices":19,
					"material":0
				},
				{
					"attributes":{
						"POSITION":27,
						"TEXCOORD_0":28,
						"NORMAL":29
					},
					"indices":23,
					"material":4
				}
			]
		},
		{
			"name":"Cylinder.002",
			"primitives":[
				{
					"attributes":{
						"POSITION":30,
						"TEXCOORD_0":31,
						"NORMAL":32
					},
					"indices":33,
					"material":3
				}
			]
		},
		{
			"name":"Icosphere",
			"primitives":[
				{
					"attributes":{
						"POSITION":34,
						"TEXCOORD_0":35,
						"NORMAL":36
					},
					"indices":37,
					"material":4
				}
			]
		}
	],
	"accessors":[
		{
			"bufferView":0,
			"componentType":5126,
			"count":1139,
			"max":[
				0.6462916135787964,
				0.8424401879310608,
				0.8230794072151184
			],
			"min":[
				-0.8424401879310608,
				-0.8424401879310608,
				-0.8236265182495117
			],
			"type":"VEC3"
		},
		{
			"bufferView":1,
			"componentType":5126,
			"count":1139,
			"type":"VEC2"
		},
		{
			"bufferView":2,
			"componentType":5126,
			"count":1139,
			"type":"VEC3"
		},
		{
			"bufferView":3,
			"componentType":5123,
			"count":4056,
			"type":"SCALAR"
		},
		{
			"bufferView":4,
			"componentType":5126,
			"count":49,
			"max":[
				0.6042158007621765,
				0.5304793119430542,
				0.5304793119430542
			],
			"min":[
				0.5988399982452393,
				-0.5304793119430542,
				-0.5304793119430542
			],
			"type":"VEC3"
		},
		{
			"bufferView":5,
			"componentType":5126,
			"count":49,
			"type":"VEC2"
		},
		{
			"bufferView":6,
			"componentType":5126,
			"count":49,
			"type":"VEC3"
		},
		{
			"bufferView":7,
			"componentType":5123,
			"count":216,
			"type":"SCALAR"
		},
		{
			"bufferView":8,
			"componentType":5126,
			"count":90,
			"max":[
				0.9273871183395386,
				-1.784955543371325e-07,
				6.6914567947387695
			],
			"min":[
				-0.9070207476615906,
				-1.8082696442434099e-06,
				-0.9999998211860657
			],
			"type":"VEC3"
		},
		{
			"bufferView":9,
			"componentType":5126,
			"count":90,
			"type":"VEC2"
		},
		{
			"bufferView":10,
			"componentType":5126,
			"count":90,
			"type":"VEC3"
		},
		{
			"bufferView":11,
			"componentType":5123,
			"count":384,
			"type":"SCALAR"
		},
		{
			"bufferView":12,
			"componentType":5126,
			"count":1932,
			"max":[
				1.9851040840148926,
				0,
				0.24084357917308807
			],
			"min":[
				-2.2718961238861084,
				-0.04999997466802597,
				-0.45015645027160645
			],
			"type":"VEC3"
		},
		{
			"bufferView":13,
			"componentType":5126,
			"count":1932,
			"type":"VEC2"
		},
		{
			"bufferView":14,
			"componentType":5126,
			"count":1932,
			"type":"VEC3"
		},
		{
			"bufferView":15,
			"componentType":5123,
			"count":5400,
			"type":"SCALAR"
		},
		{
			"bufferView":16,
			"componentType":5126,
			"count":324,
			"max":[
				1,
				1,
				1
			],
			"min":[
				-1,
				-1,
				-1
			],
			"type":"VEC3"
		},
		{
			"bufferView":17,
			"componentType":5126,
			"count":324,
			"type":"VEC2"
		},
		{
			"bufferView":18,
			"componentType":5126,
			"count":324,
			"type":"VEC3"
		},
		{
			"bufferView":19,
			"componentType":5123,
			"count":1050,
			"type":"SCALAR"
		},
		{
			"bufferView":20,
			"componentType":5126,
			"count":66,
			"max":[
				1.2178118228912354,
				1.0000016689300537,
				1.2178118228912354
			],
			"min":[
				-1.2178118228912354,
				1,
				-1.2178118228912354
			],
			"type":"VEC3"
		},
		{
			"bufferView":21,
			"componentType":5126,
			"count":66,
			"type":"VEC2"
		},
		{
			"bufferView":22,
			"componentType":5126,
			"count":66,
			"type":"VEC3"
		},
		{
			"bufferView":23,
			"componentType":5123,
			"count":192,
			"type":"SCALAR"
		},
		{
			"bufferView":24,
			"componentType":5126,
			"count":324,
			"max":[
				1,
				1,
				1
			],
			"min":[
				-1,
				-1,
				-1
			],
			"type":"VEC3"
		},
		{
			"bufferView":25,
			"componentType":5126,
			"count":324,
			"type":"VEC2"
		},
		{
			"bufferView":26,
			"componentType":5126,
			"count":324,
			"type":"VEC3"
		},
		{
			"bufferView":27,
			"componentType":5126,
			"count":66,
			"max":[
				1.2178118228912354,
				1.0000016689300537,
				1.2178118228912354
			],
			"min":[
				-1.2178118228912354,
				1,
				-1.2178118228912354
			],
			"type":"VEC3"
		},
		{
			"bufferView":28,
			"componentType":5126,
			"count":66,
			"type":"VEC2"
		},
		{
			"bufferView":29,
			"componentType":5126,
			"count":66,
			"type":"VEC3"
		},
		{
			"bufferView":30,
			"componentType":5126,
			"count":768,
			"max":[
				1,
				1.0284969806671143,
				1
			],
			"min":[
				-1,
				-1,
				-1
			],
			"type":"VEC3"
		},
		{
			"bufferView":31,
			"componentType":5126,
			"count":768,
			"type":"VEC2"
		},
		{
			"bufferView":32,
			"componentType":5126,
			"count":768,
			"type":"VEC3"
		},
		{
			"bufferView":33,
			"componentType":5123,
			"count":1332,
			"type":"SCALAR"
		},
		{
			"bufferView":34,
			"componentType":5126,
			"count":240,
			"max":[
				0.9510578513145447,
				1,
				0.9999999403953552
			],
			"min":[
				-0.9510578513145447,
				-1,
				-0.9999999403953552
			],
			"type":"VEC3"
		},
		{
			"bufferView":35,
			"componentType":5126,
			"count":240,
			"type":"VEC2"
		},
		{
			"bufferView":36,
			"componentType":5126,
			"count":240,
			"type":"VEC3"
		},
		{
			"bufferView":37,
			"componentType":5123,
			"count":240,
			"type":"SCALAR"
		}
	],
	"bufferViews":[
		{
			"buffer":0,
			"byteLength":13668,
			"byteOffset":0,
			"target":34962
		},
		{
			"buffer":0,
			"byteLength":9112,
			"byteOffset":13668,
			"target":34962
		},
		{
			"buffer":0,
			"byteLength":13668,
			"byteOffset":22780,
			"target":34962
		},
		{
			"buffer":0,
			"byteLength":8112,
			"byteOffset":36448,
			"target":34963
		},
		{
			"buffer":0,
			"byteLength":588,
			"byteOffset":44560,
			"target":34962
		},
		{
			"buffer":0,
			"byteLength":392,
			"byteOffset":45148,
			"target":34962
		},
		{
			"buffer":0,
			"byteLength":588,
			"byteOffset":45540,
			"target":34962
		},
		{
			"buffer":0,
			"byteLength":432,
			"byteOffset":46128,
			"target":34963
		},
		{
			"buffer":0,
			"byteLength":1080,
			"byteOffset":46560,
			"target":34962
		},
		{
			"buffer":0,
			"byteLength":720,
			"byteOffset":47640,
			"target":34962
		},
		{
			"buffer":0,
			"byteLength":1080,
			"byteOffset":48360,
			"target":34962
		},
		{
			"buffer":0,
			"byteLength":768,
			"byteOffset":49440,
			"target":34963
		},
		{
			"buffer":0,
			"byteLength":23184,
			"byteOffset":50208,
			"target":34962
		},
		{
			"buffer":0,
			"byteLength":15456,
			"byteOffset":73392,
			"target":34962
		},
		{
			"buffer":0,
			"byteLength":23184,
			"byteOffset":88848,
			"target":34962
		},
		{
			"buffer":0,
			"byteLength":10800,
			"byteOffset":112032,
			"target":34963
		},
		{
			"buffer":0,
			"byteLength":3888,
			"byteOffset":122832,
			"target":34962
		},
		{
			"buffer":0,
			"byteLength":2592,
			"byteOffset":126720,
			"target":34962
		},
		{
			"buffer":0,
			"byteLength":3888,
			"byteOffset":129312,
			"target":34962
		},
		{
			"buffer":0,
			"byteLength":2100,
			"byteOffset":133200,
			"target":34963
		},
		{
			"buffer":0,
			"byteLength":792,
			"byteOffset":135300,
			"target":34962
		},
		{
			"buffer":0,
			"byteLength":528,
			"byteOffset":136092,
			"target":34962
		},
		{
			"buffer":0,
			"byteLength":792,
			"byteOffset":136620,
			"target":34962
		},
		{
			"buffer":0,
			"byteLength":384,
			"byteOffset":137412,
			"target":34963
		},
		{
			"buffer":0,
			"byteLength":3888,
			"byteOffset":137796,
			"target":34962
		},
		{
			"buffer":0,
			"byteLength":2592,
			"byteOffset":141684,
			"target":34962
		},
		{
			"buffer":0,
			"byteLength":3888,
			"byteOffset":144276,
			"target":34962
		},
		{
			"buffer":0,
			"byteLength":792,
			"byteOffset":148164,
			"target":34962
		},
		{
			"buffer":0,
			"byteLength":528,
			"byteOffset":148956,
			"target":34962
		},
		{
			"buffer":0,
			"byteLength":792,
			"byteOffset":149484,
			"target":34962
		},
		{
			"buffer":0,
			"byteLength":9216,
			"byteOffset":150276,
			"target":34962
		},
		{
			"buffer":0,
			"byteLength":6144,
			"byteOffset":159492,
			"target":34962
		},
		{
			"buffer":0,
			"byteLength":9216,
			"byteOffset":165636,
			"target":34962
		},
		{
			"buffer":0,
			"byteLength":2664,
			"byteOffset":174852,
			"target":34963
		},
		{
			"buffer":0,
			"byteLength":2880,
			"byteOffset":177516,
			"target":34962
		},
		{
			"buffer":0,
			"byteLength":1920,
			"byteOffset":180396,
			"target":34962
		},
		{
			"buffer":0,
			"byteLength":2880,
			"byteOffset":182316,
			"target":34962
		},
		{
			"buffer":0,
			"byteLength":480,
			"byteOffset":185196,
			"target":34963
		}
	],
	"buffers":[
		{
			"byteLength":185676,
			"uri":"data:application/octet-stream;base64,"
		}
	]
}
