{
	"asset":{
		"generator":"Khronos glTF Blender I/O v3.5.30",
		"version":"2.0"
	},
	"extensionsUsed":[
		"KHR_materials_emissive_strength"
	],
	"scene":0,
	"scenes":[
		{
			"name":"Scene",
			"nodes":[
				0,
				1,
				2,
				3
			]
		}
	],
	"nodes":[
		{
			"mesh":0,
			"name":"Cube"
		},
		{
			"mesh":1,
			"name":"Plane",
			"rotation":[
				0,
				0,
				-0.7071068286895752,
				0.7071068286895752
			],
			"scale":[
				0.09000003337860107,
				1,
				0.060000039637088776
			],
			"translation":[
				0.6538575291633606,
				0.13739711046218872,
				-0.17159561812877655
			]
		},
		{
			"name":"Empty",
			"translation":[
				0.10631820559501648,
				0.11717887222766876,
				-0.000851798802614212
			]
		},
		{
			"mesh":2,
			"name":"holocruxe text",
			"rotation":[
				0.5,
				0.5,
				-0.5,
				0.5
			],
			"scale":[
				0.10564311593770981,
				0.4046822786331177,
				0.08922259509563446
			],
			"translation":[
				0.6628659963607788,
				0.3790974020957947,
				-0.01954156905412674
			]
		}
	],
	"materials":[
		{
			"doubleSided":true,
			"name":"body",
			"pbrMetallicRoughness":{
				"baseColorFactor":[
					0.8215641379356384,
					0.8215641379356384,
					0.8215641379356384,
					1
				],
				"metallicFactor":0.45890408754348755,
				"roughnessFactor":0.009999999776482582
			}
		},
		{
			"doubleSided":true,
			"name":"face",
			"pbrMetallicRoughness":{
				"baseColorFactor":[
					0,
					0,
					0,
					1
				],
				"metallicFactor":0,
				"roughnessFactor":0.09931507706642151
			}
		},
		{
			"alphaMode":"BLEND",
			"doubleSided":true,
			"emissiveFactor":[
				0.32067596700576073,
				0.8555126947176601,
				1
			],
			"extensions":{
				"KHR_materials_emissive_strength":{
					"emissiveStrength":1.981274968373512
				}
			},
			"name":"eyes",
			"pbrMetallicRoughness":{
				"baseColorFactor":[
					0.09989803284406662,
					0.5332761406898499,
					0.5088813900947571,
					1
				],
				"metallicFactor":0,
				"roughnessFactor":0.5
			}
		},
		{
			"doubleSided":true,
			"emissiveFactor":[
				0.10988777896636037,
				0.5866034496157795,
				0.5597692379199657
			],
			"name":"Material.001",
			"pbrMetallicRoughness":{
				"baseColorFactor":[
					0.09989803284406662,
					0.5332761406898499,
					0.5088813900947571,
					1
				],
				"metallicFactor":0,
				"roughnessFactor":0.5
			}
		}
	],
	"meshes":[
		{
			"name":"Cube",
			"primitives":[
				{
					"attributes":{
						"POSITION":0,
						"TEXCOORD_0":1,
						"NORMAL":2
					},
					"indices":3,
					"material":0
				},
				{
					"attributes":{
						"POSITION":4,
						"TEXCOORD_0":5,
						"NORMAL":6
					},
					"indices":7,
					"material":1
				}
			]
		},
		{
			"name":"Plane",
			"primitives":[
				{
					"attributes":{
						"POSITION":8,
						"TEXCOORD_0":9,
						"NORMAL":10
					},
					"indices":11,
					"material":2
				}
			]
		},
		{
			"name":"Text",
			"primitives":[
				{
					"attributes":{
						"POSITION":12,
						"TEXCOORD_0":13,
						"NORMAL":14
					},
					"indices":15,
					"material":3
				}
			]
		}
	],
	"accessors":[
		{
			"bufferView":0,
			"componentType":5126,
			"count":768,
			"max":[
				0.6736575365066528,
				0.8424401879310608,
				0.8230794072151184
			],
			"min":[
				-0.8424401879310608,
				-0.8424401879310608,
				-0.8236265182495117
			],
			"type":"VEC3"
		},
		{
			"bufferView":1,
			"componentType":5126,
			"count":768,
			"type":"VEC2"
		},
		{
			"bufferView":2,
			"componentType":5126,
			"count":768,
			"type":"VEC3"
		},
		{
			"bufferView":3,
			"componentType":5123,
			"count":3240,
			"type":"SCALAR"
		},
		{
			"bufferView":4,
			"componentType":5126,
			"count":49,
			"max":[
				0.6042158007621765,
				0.5304793119430542,
				0.5304793119430542
			],
			"min":[
				0.5988399982452393,
				-0.5304793119430542,
				-0.5304793119430542
			],
			"type":"VEC3"
		},
		{
			"bufferView":5,
			"componentType":5126,
			"count":49,
			"type":"VEC2"
		},
		{
			"bufferView":6,
			"componentType":5126,
			"count":49,
			"type":"VEC3"
		},
		{
			"bufferView":7,
			"componentType":5123,
			"count":216,
			"type":"SCALAR"
		},
		{
			"bufferView":8,
			"componentType":5126,
			"count":90,
			"max":[
				0.9273871183395386,
				-1.784955543371325e-07,
				6.6914567947387695
			],
			"min":[
				-0.9070207476615906,
				-1.8082696442434099e-06,
				-0.9999998211860657
			],
			"type":"VEC3"
		},
		{
			"bufferView":9,
			"componentType":5126,
			"count":90,
			"type":"VEC2"
		},
		{
			"bufferView":10,
			"componentType":5126,
			"count":90,
			"type":"VEC3"
		},
		{
			"bufferView":11,
			"componentType":5123,
			"count":384,
			"type":"SCALAR"
		},
		{
			"bufferView":12,
			"componentType":5126,
			"count":1932,
			"max":[
				1.9851040840148926,
				0,
				0.24084357917308807
			],
			"min":[
				-2.2718961238861084,
				-0.04999997466802597,
				-0.45015645027160645
			],
			"type":"VEC3"
		},
		{
			"bufferView":13,
			"componentType":5126,
			"count":1932,
			"type":"VEC2"
		},
		{
			"bufferView":14,
			"componentType":5126,
			"count":1932,
			"type":"VEC3"
		},
		{
			"bufferView":15,
			"componentType":5123,
			"count":5400,
			"type":"SCALAR"
		}
	],
	"bufferViews":[
		{
			"buffer":0,
			"byteLength":9216,
			"byteOffset":0,
			"target":34962
		},
		{
			"buffer":0,
			"byteLength":6144,
			"byteOffset":9216,
			"target":34962
		},
		{
			"buffer":0,
			"byteLength":9216,
			"byteOffset":15360,
			"target":34962
		},
		{
			"buffer":0,
			"byteLength":6480,
			"byteOffset":24576,
			"target":34963
		},
		{
			"buffer":0,
			"byteLength":588,
			"byteOffset":31056,
			"target":34962
		},
		{
			"buffer":0,
			"byteLength":392,
			"byteOffset":31644,
			"target":34962
		},
		{
			"buffer":0,
			"byteLength":588,
			"byteOffset":32036,
			"target":34962
		},
		{
			"buffer":0,
			"byteLength":432,
			"byteOffset":32624,
			"target":34963
		},
		{
			"buffer":0,
			"byteLength":1080,
			"byteOffset":33056,
			"target":34962
		},
		{
			"buffer":0,
			"byteLength":720,
			"byteOffset":34136,
			"target":34962
		},
		{
			"buffer":0,
			"byteLength":1080,
			"byteOffset":34856,
			"target":34962
		},
		{
			"buffer":0,
			"byteLength":768,
			"byteOffset":35936,
			"target":34963
		},
		{
			"buffer":0,
			"byteLength":23184,
			"byteOffset":36704,
			"target":34962
		},
		{
			"buffer":0,
			"byteLength":15456,
			"byteOffset":59888,
			"target":34962
		},
		{
			"buffer":0,
			"byteLength":23184,
			"byteOffset":75344,
			"target":34962
		},
		{
			"buffer":0,
			"byteLength":10800,
			"byteOffset":98528,
			"target":34963
		}
	],
	"buffers":[
		{
			"byteLength":109328,
			"uri":"data:application/octet-stream;base64,"
		}
	]
}
